# xmcd
#
# Track frame offsets: 
#        150
#        15125
#        25825
#        39462
#        51577
#        64307
#        76012
#        91387
#        104022
#        120055
#        133017
#        145695
#        161587
#        173510
#        186800
#        203700
#        216040
#        228830
#        239025
#
# Disc length: 3474 seconds
#
# Revision: 3
# Processed by: cddbd v1.5.2PL0 Copyright (c) Steve Scherf et al.
# Submitted via: ExactAudioCopyFreeDBPlugin 1.0
#
DISCID=f40d9013
DTITLE=Solomon Burke - Home In Your Heart:  The Best of Solomon Burke
DYEAR=1992
DGENRE=Soul
TTITLE0=Get Out of My Life Woman
TTITLE1=Save It
TTITLE2=Take Me (Just as I Am)
TTITLE3=When She Touches Me (Nothing Else Matters)
TTITLE4=I Wish I Knew (How It Would Feel to Be Free)
TTITLE5=Party People
TTITLE6=Keep a Light in the Window
TTITLE7=I Feel a Sin Coming On
TTITLE8=Meet Me in Church
TTITLE9=Someone is Watching
TTITLE10=Detroit City
TTITLE11=Shame on Me
TTITLE12=I Stayed Away Too Long
TTITLE13=It's Just a Matter of Time
TTITLE14=Since I Met You Baby
TTITLE15=Time is a Thief
TTITLE16=Woman, How Do You Make Me Love You Like I Do
TTITLE17=It's Been a Change
TTITLE18=What'd I Say
EXTD=
EXTT0=
EXTT1=
EXTT2=
EXTT3=
EXTT4=
EXTT5=
EXTT6=
EXTT7=
EXTT8=
EXTT9=
EXTT10=
EXTT11=
EXTT12=
EXTT13=
EXTT14=
EXTT15=
EXTT16=
EXTT17=
EXTT18=
PLAYORDER=
